<svg xmlns="http://www.w3.org/2000/svg" version="1.1" xmlns:xlink="http://www.w3.org/1999/xlink" xmlns:svgjs="http://svgjs.dev/svgjs" width="1500" height="189" viewBox="0 0 1500 189"><g transform="matrix(1,0,0,1,-0.9090909090909918,0.09363706814799855)"><svg viewBox="0 0 396 50" data-background-color="#223566" preserveAspectRatio="xMidYMid meet" height="189" width="1500" xmlns="http://www.w3.org/2000/svg" xmlns:xlink="http://www.w3.org/1999/xlink"><g id="tight-bounds" transform="matrix(1,0,0,1,0.2400000000000091,-0.02477171115026522)"><svg viewBox="0 0 395.52 50.0495434223005" height="50.0495434223005" width="395.52"><g><svg viewBox="0 0 395.52 50.0495434223005" height="50.0495434223005" width="395.52"><g><svg viewBox="0 0 395.52 50.0495434223005" height="50.0495434223005" width="395.52"><g id="textblocktransform"><svg viewBox="0 0 395.52 50.0495434223005" height="50.0495434223005" width="395.52" id="textblock"><g><svg viewBox="0 0 395.52 50.0495434223005" height="50.0495434223005" width="395.52"><g transform="matrix(1,0,0,1,0,0)"><svg width="395.52" viewBox="2.5 -33.7 369.01 46.7" height="50.0495434223005" data-palette-color="#ca8575"><path d="M10.7-30.6L10.7-16.55 13.45-16.55Q17.15-16.55 19.13-18.35 21.1-20.15 21.1-23.8 21.1-27.45 19.35-29.2 17.6-30.95 13.95-30.95L13.95-30.95Q12-30.95 10.7-30.6L10.7-30.6ZM4.35-32.5L4.35-32.5 13.95-32.9Q19.35-32.9 22.7-30.93 26.05-28.95 26.05-24.45L26.05-24.45Q26.05-21.15 23.78-18.7 21.5-16.25 18.4-16L18.4-16 18.4-15.65Q19.65-15.3 21.08-13.45 22.5-11.6 23.55-9.5L23.55-9.5Q26.45-3.7 28.3-2.5 30.15-1.3 32.55-1.3L32.55-1.3 32.3 0.3 25.2 0.3Q23.65 0.3 20.6-5.1L20.6-5.1Q19.85-6.35 18.85-8.13 17.85-9.9 17.5-10.5 17.15-11.1 16.85-11.58 16.55-12.05 16.43-12.25 16.3-12.45 16.07-12.78 15.85-13.1 15.73-13.25 15.6-13.4 15.4-13.6L15.4-13.6Q14.7-14.45 12.85-14.45L12.85-14.45 10.7-14.45 10.7-3.85Q10.7-3.1 10.9-2.7 11.1-2.3 11.8-2.1L11.8-2.1 15.95-1.4 15.6 0.4Q12.1 0 9.33 0 6.55 0 2.85 0.4L2.85 0.4 2.5-1.25Q4.5-1.5 5.38-1.88 6.25-2.25 6.25-3.45L6.25-3.45 6.25-28.95Q6.25-30.1 5.45-30.45L5.45-30.45Q4.8-30.75 3-31L3-31 2.5-31.1 2.85-32.65Q3.1-32.5 4.35-32.5ZM55.1-15.8L55.1-4.25Q55.1-2.95 55.85-2.63 56.6-2.3 57.45-2.3 58.3-2.3 59.05-2.4L59.05-2.4 59.4-0.9Q55.95-0.2 53.55 0.8L53.55 0.8Q51.2-0.9 51.2-2.85L51.2-2.85 49.4-1.5Q46.45 0.8 43.45 0.8L43.45 0.8Q37.1 0.8 37.1-6.75L37.1-6.75 37.1-16.9Q37.1-18.5 36.25-18.65L36.25-18.65Q35.5-18.75 34.25-18.5L34.25-18.5 33.75-18.4 33.5-19.9Q36.45-21.15 40.75-21.6L40.75-21.6 41.45-20.7Q41.1-19.2 41.1-15.8L41.1-15.8 41.1-7.75Q41.1-4.9 42.17-3.58 43.25-2.25 45.6-2.25 47.95-2.25 51.05-4.6L51.05-4.6 51.05-16.9Q51.05-18.5 50.25-18.65L50.25-18.65Q49.35-18.75 47.95-18.5L47.95-18.5 47.4-18.4 47.1-19.9Q50.4-21.35 54.7-21.6L54.7-21.6 55.45-20.7Q55.1-19.2 55.1-15.8L55.1-15.8ZM39.12-27.68Q38.35-28.4 38.35-29.55 38.35-30.7 39.12-31.45 39.9-32.2 41.12-32.2 42.35-32.2 43.12-31.45 43.9-30.7 43.9-29.55 43.9-28.4 43.12-27.68 42.35-26.95 41.12-26.95 39.9-26.95 39.12-27.68ZM48.72-27.68Q47.95-28.4 47.95-29.55 47.95-30.7 48.72-31.45 49.5-32.2 50.72-32.2 51.95-32.2 52.72-31.45 53.5-30.7 53.5-29.55 53.5-28.4 52.72-27.68 51.95-26.95 50.72-26.95 49.5-26.95 48.72-27.68ZM73.7-2.35L73.7-2.35Q76.7-2.35 79.7-4.5L79.7-4.5 80.5-3.4Q75.95 0.8 71.72 0.8 67.5 0.8 64.77-2.13 62.05-5.05 62.05-9.9 62.05-14.75 64.8-18.18 67.55-21.6 71.92-21.6 76.3-21.6 78.45-18.88 80.6-16.15 80.6-11.5L80.6-11.5 66.5-10.5Q66.9-2.35 73.7-2.35ZM71.65-19.55L71.65-19.55Q69-19.55 67.75-17.43 66.5-15.3 66.5-12.3L66.5-12.3 76.1-13.5Q76.1-19.55 71.65-19.55ZM84.84-13.85L84.84-13.85Q84.84-17.55 87.39-19.58 89.94-21.6 93.94-21.6L93.94-21.6Q96.54-21.6 98.19-20.8L98.19-20.8 98.74-20.5Q102.09-20.8 104.94-22.1L104.94-22.1 105.59-21.4 105.04-19Q104.09-18.85 103.02-18.85 101.94-18.85 100.79-18.95L100.79-18.95Q101.64-18.1 102.22-16.7 102.79-15.3 102.79-13.85L102.79-13.85Q102.79-10.15 100.24-8.08 97.69-6 93.69-6L93.69-6 91.74-6.2Q89.64-4.6 89.64-3.75L89.64-3.75Q89.64-2.4 93.44-2.15L93.44-2.15 98.39-1.8Q101.54-1.55 103.19-0.05 104.84 1.45 104.84 3.9 104.84 6.35 102.84 8.53 100.84 10.7 97.94 11.85 95.04 13 91.59 13 88.14 13 85.79 11.48 83.44 9.95 83.44 7L83.44 7Q83.44 5.6 83.89 4.7L83.89 4.7 88.84 0.95Q85.54 0.05 85.54-2.25L85.54-2.25Q85.54-2.9 85.89-3.6L85.89-3.6 89.79-6.7Q89.29-6.85 88.24-7.53 87.19-8.2 86.54-8.93 85.89-9.65 85.37-10.98 84.84-12.3 84.84-13.85ZM87.44 6.25L87.44 6.25Q87.44 8.1 89.29 9.33 91.14 10.55 94.24 10.55 97.34 10.55 99.42 9.15 101.49 7.75 101.49 5.8 101.49 3.85 100.47 2.93 99.44 2 97.04 1.8L97.04 1.8 91.04 1.35Q88.99 3 88.22 4 87.44 5 87.44 6.25ZM89.04-14.15L89.04-14.15Q89.04-11.5 90.32-9.73 91.59-7.95 93.94-7.95L93.94-7.95Q98.54-7.95 98.54-13.5L98.54-13.5Q98.54-16.15 97.27-17.93 95.99-19.7 93.69-19.7L93.69-19.7Q89.04-19.7 89.04-14.15ZM108.39-13.85L108.39-13.85Q108.39-17.55 110.94-19.58 113.49-21.6 117.49-21.6L117.49-21.6Q120.09-21.6 121.74-20.8L121.74-20.8 122.29-20.5Q125.64-20.8 128.49-22.1L128.49-22.1 129.14-21.4 128.59-19Q127.64-18.85 126.57-18.85 125.49-18.85 124.34-18.95L124.34-18.95Q125.19-18.1 125.77-16.7 126.34-15.3 126.34-13.85L126.34-13.85Q126.34-10.15 123.79-8.08 121.24-6 117.24-6L117.24-6 115.29-6.2Q113.19-4.6 113.19-3.75L113.19-3.75Q113.19-2.4 116.99-2.15L116.99-2.15 121.94-1.8Q125.09-1.55 126.74-0.05 128.39 1.45 128.39 3.9 128.39 6.35 126.39 8.53 124.39 10.7 121.49 11.85 118.59 13 115.14 13 111.69 13 109.34 11.48 106.99 9.95 106.99 7L106.99 7Q106.99 5.6 107.44 4.7L107.44 4.7 112.39 0.95Q109.09 0.05 109.09-2.25L109.09-2.25Q109.09-2.9 109.44-3.6L109.44-3.6 113.34-6.7Q112.84-6.85 111.79-7.53 110.74-8.2 110.09-8.93 109.44-9.65 108.92-10.98 108.39-12.3 108.39-13.85ZM110.99 6.25L110.99 6.25Q110.99 8.1 112.84 9.33 114.69 10.55 117.79 10.55 120.89 10.55 122.97 9.15 125.04 7.75 125.04 5.8 125.04 3.85 124.02 2.93 122.99 2 120.59 1.8L120.59 1.8 114.59 1.35Q112.54 3 111.77 4 110.99 5 110.99 6.25ZM112.59-14.15L112.59-14.15Q112.59-11.5 113.87-9.73 115.14-7.95 117.49-7.95L117.49-7.95Q122.09-7.95 122.09-13.5L122.09-13.5Q122.09-16.15 120.82-17.93 119.54-19.7 117.24-19.7L117.24-19.7Q112.59-19.7 112.59-14.15ZM161.34 0.35L154.34 0.35Q153.64 0.35 150.64-2.55L150.64-2.55Q146.94 0.8 142.36 0.8 137.79 0.8 134.71-1.25 131.64-3.3 131.64-7.35L131.64-7.35Q131.64-13.4 138.24-16L138.24-16Q138.19-16.05 138.19-16.1L138.19-16.1Q136.44-17.75 135.66-19.28 134.89-20.8 134.89-23.1L134.89-23.1Q134.89-26.2 137.24-28.35 139.59-30.5 142.76-30.5 145.94-30.5 148.26-28.73 150.59-26.95 150.59-24.1 150.59-21.25 148.46-19.1 146.34-16.95 143.64-16.45L143.64-16.45Q143.89-16.15 144.41-15.63 144.94-15.1 147.79-12.03 150.64-8.95 152.14-7.35L152.14-7.35Q153.39-9.3 153.39-11.43 153.39-13.55 152.14-15.85L152.14-15.85 153.49-16.75Q156.54-14.25 158.09-12.2L158.09-12.2Q156.84-10.1 153.54-5.9L153.54-5.9Q156.54-2.95 157.54-2.3L157.54-2.3Q158.94-1.25 161.59-1.25L161.59-1.25 161.34 0.35ZM136.09-8.1L136.09-8.1Q136.09-5.35 138.01-3.38 139.94-1.4 143.01-1.4 146.09-1.4 149.19-4.05L149.19-4.05Q148.44-4.85 139.49-14.65L139.49-14.65Q136.09-12.3 136.09-8.1ZM138.99-24.4L138.99-24.4Q138.99-21.75 142.34-17.9L142.34-17.9Q143.84-18.35 145.06-20.03 146.29-21.7 146.29-23.73 146.29-25.75 145.19-27.05 144.09-28.35 142.46-28.35 140.84-28.35 139.91-27.23 138.99-26.1 138.99-24.4ZM167.69-3.25L167.69-3.25Q167.69-2.25 168.94-1.9L168.94-1.9 171.89-1.25 171.59 0.4Q168.84 0 166.39 0 163.94 0 161.14 0.4L161.14 0.4 160.79-1.25Q162.89-1.7 163.49-2.27 164.09-2.85 164.89-5.05L164.89-5.05 174.84-32.25Q177.04-32.75 178.64-33.7L178.64-33.7 189.39-5.05Q190.19-2.9 190.84-2.3 191.49-1.7 193.59-1.25L193.59-1.25 193.24 0.4Q190.44 0 187.26 0 184.09 0 181.29 0.4L181.29 0.4 180.99-1.25Q182.74-1.55 183.94-1.93 185.14-2.3 185.14-3.25L185.14-3.25Q185.14-3.6 184.99-3.95L184.99-3.95 182.14-11.85 170.49-11.85 167.79-3.95Q167.69-3.7 167.69-3.25ZM175.94-28.75L175.69-26.85 171.34-14.35 181.24-14.35 176.84-26.5 176.29-28.6 175.94-28.75ZM202.43-1.1L202.43-1.1Q206.48-1.1 206.48-4.6L206.48-4.6Q206.48-6.15 205.33-7.1 204.18-8.05 202.08-9.05 199.98-10.05 199.23-10.48 198.48-10.9 197.68-11.6L197.68-11.6Q196.03-13.05 196.03-15.7 196.03-18.35 198.06-19.98 200.08-21.6 203.48-21.6L203.48-21.6Q205.08-21.6 209.53-20.45L209.53-20.45Q209.23-17.4 208.68-15.45L208.68-15.45 207.68-15.25Q206.48-19.8 203.13-19.8L203.13-19.8Q201.38-19.8 200.51-18.95 199.63-18.1 199.63-16.78 199.63-15.45 200.53-14.68 201.43-13.9 202.68-13.3 203.93-12.7 204.83-12.25L204.83-12.25 205.93-11.7Q207.43-10.95 207.76-10.63 208.08-10.3 208.63-9.88 209.18-9.45 209.36-9.08 209.53-8.7 209.83-8.2L209.83-8.2Q210.33-7.3 210.33-5.9L210.33-5.9Q210.33-2.6 208.03-0.9 205.73 0.8 202.16 0.8 198.58 0.8 195.88-0.55L195.88-0.55Q195.78-1.25 195.78-3.28 195.78-5.3 195.88-6L195.88-6 197.33-6.3Q197.73-4 199.08-2.55 200.43-1.1 202.43-1.1ZM221.48-1.1L221.48-1.1Q225.53-1.1 225.53-4.6L225.53-4.6Q225.53-6.15 224.38-7.1 223.23-8.05 221.13-9.05 219.03-10.05 218.28-10.48 217.53-10.9 216.73-11.6L216.73-11.6Q215.08-13.05 215.08-15.7 215.08-18.35 217.11-19.98 219.13-21.6 222.53-21.6L222.53-21.6Q224.13-21.6 228.58-20.45L228.58-20.45Q228.28-17.4 227.73-15.45L227.73-15.45 226.73-15.25Q225.53-19.8 222.18-19.8L222.18-19.8Q220.43-19.8 219.56-18.95 218.68-18.1 218.68-16.78 218.68-15.45 219.58-14.68 220.48-13.9 221.73-13.3 222.98-12.7 223.88-12.25L223.88-12.25 224.98-11.7Q226.48-10.95 226.81-10.63 227.13-10.3 227.68-9.88 228.23-9.45 228.41-9.08 228.58-8.7 228.88-8.2L228.88-8.2Q229.38-7.3 229.38-5.9L229.38-5.9Q229.38-2.6 227.08-0.9 224.78 0.8 221.21 0.8 217.63 0.8 214.93-0.55L214.93-0.55Q214.83-1.25 214.83-3.28 214.83-5.3 214.93-6L214.93-6 216.38-6.3Q216.78-4 218.13-2.55 219.48-1.1 221.48-1.1ZM243.93 0.8Q239.08 0.8 236.38-2.1 233.68-5 233.68-10.03 233.68-15.05 236.55-18.32 239.43-21.6 244.25-21.6 249.08-21.6 251.83-18.68 254.58-15.75 254.58-10.78 254.58-5.8 251.68-2.5 248.78 0.8 243.93 0.8ZM238.13-10.95L238.13-10.95Q238.13-6.25 239.88-3.75 241.63-1.25 244.78-1.25L244.78-1.25Q250.08-1.25 250.08-9.85L250.08-9.85Q250.08-14.5 248.3-17.03 246.53-19.55 243.38-19.55L243.38-19.55Q238.13-19.55 238.13-10.95ZM274.78-12.95L273.08-13.25Q273.13-13.75 273.13-14.45L273.13-14.45Q273.13-17.45 272.58-18.55L272.58-18.55Q271.23-19.5 268.43-19.5L268.43-19.5Q263.23-19.5 263.23-11.15L263.23-11.15Q263.23-6.85 265.18-4.6 267.13-2.35 270.13-2.35 273.13-2.35 276.13-4.4L276.13-4.4 276.93-3.2Q272.48 0.8 268.78 0.8L268.78 0.8Q264.33 0.8 261.55-2.15 258.78-5.1 258.78-9.98 258.78-14.85 261.5-18.23 264.23-21.6 268.83-21.6L268.83-21.6Q270.38-21.6 272.83-20.93 275.28-20.25 276.58-19.7L276.58-19.7Q276.48-18.65 275.85-16.28 275.23-13.9 274.78-12.95L274.78-12.95ZM287.77-15.8L287.77-3.3Q287.77-2.65 287.9-2.4 288.02-2.15 288.52-1.9L288.52-1.9Q289.47-1.4 290.92-1.2L290.92-1.2 291.42-1.1 291.07 0.4Q287.72 0 285.77 0 283.82 0 280.52 0.4L280.52 0.4 280.12-1.1Q282.07-1.4 282.8-1.78 283.52-2.15 283.65-2.4 283.77-2.65 283.77-3.3L283.77-3.3 283.77-17.05Q283.77-18.5 282.92-18.65L282.92-18.65Q282.17-18.75 280.57-18.45L280.57-18.45 280.27-19.95Q281.77-20.55 284.02-21.08 286.27-21.6 287.57-21.6L287.57-21.6 288.32-20.7Q287.77-18.6 287.77-15.8L287.77-15.8ZM282.85-27.98Q282.02-28.75 282.02-29.95 282.02-31.15 282.82-31.95 283.62-32.75 284.92-32.75 286.22-32.75 287.05-31.95 287.87-31.15 287.87-29.95 287.87-28.75 287.05-27.98 286.22-27.2 284.95-27.2 283.67-27.2 282.85-27.98ZM298.97-5.6Q298.97-4.2 299.87-3.2 300.77-2.2 302.47-2.2 304.17-2.2 306.77-4.2L306.77-4.2 306.77-9.9 302.92-9.2Q298.97-8.55 298.97-5.6L298.97-5.6ZM310.77-14.3L310.77-14.3 310.77-4.1Q310.77-2.3 312.72-2.3L312.72-2.3 314.07-2.35 314.47-0.9Q312.02-0.35 309.27 0.8L309.27 0.8Q307.42-0.45 306.92-2.55L306.92-2.55Q304.67-0.65 303.25 0.08 301.82 0.8 300.42 0.8L300.42 0.8Q297.87 0.8 296.35-0.8 294.82-2.4 294.82-5.13 294.82-7.85 296.77-9.18 298.72-10.5 302.17-10.85L302.17-10.85 306.77-11.35 306.77-13.6Q306.77-16.45 305.92-17.9 305.07-19.35 302.85-19.35 300.62-19.35 299.52-18.75L299.52-18.75Q299.22-17.7 299.22-14.15L299.22-14.15 297.12-13.55Q296.02-17.2 295.87-19.15L295.87-19.15Q301.27-21.6 303.67-21.6L303.67-21.6Q307.37-21.6 309.07-19.83 310.77-18.05 310.77-14.3ZM323.62-18.5L323.62-6.2Q323.62-3.85 324.47-3.05 325.32-2.25 327.04-2.25 328.77-2.25 331.12-3.8L331.12-3.8 331.87-2.65Q327.67 0.8 324.92 0.8L324.92 0.8Q319.62 0.8 319.62-5.45L319.62-5.45 319.62-18.6 316.72-18.6 316.47-19.9 319.62-20.8 319.62-24.15 323.62-26 323.62-20.5 330.02-20.95 329.62-18.3 323.62-18.5ZM345.92-2.35L345.92-2.35Q348.92-2.35 351.92-4.5L351.92-4.5 352.72-3.4Q348.17 0.8 343.94 0.8 339.72 0.8 336.99-2.13 334.27-5.05 334.27-9.9 334.27-14.75 337.02-18.18 339.77-21.6 344.14-21.6 348.52-21.6 350.67-18.88 352.82-16.15 352.82-11.5L352.82-11.5 338.72-10.5Q339.12-2.35 345.92-2.35ZM343.87-19.55L343.87-19.55Q341.22-19.55 339.97-17.43 338.72-15.3 338.72-12.3L338.72-12.3 348.32-13.5Q348.32-19.55 343.87-19.55ZM363.61-1.1L363.61-1.1Q367.66-1.1 367.66-4.6L367.66-4.6Q367.66-6.15 366.51-7.1 365.36-8.05 363.26-9.05 361.16-10.05 360.41-10.48 359.66-10.9 358.86-11.6L358.86-11.6Q357.21-13.05 357.21-15.7 357.21-18.35 359.24-19.98 361.26-21.6 364.66-21.6L364.66-21.6Q366.26-21.6 370.71-20.45L370.71-20.45Q370.41-17.4 369.86-15.45L369.86-15.45 368.86-15.25Q367.66-19.8 364.31-19.8L364.31-19.8Q362.56-19.8 361.69-18.95 360.81-18.1 360.81-16.78 360.81-15.45 361.71-14.68 362.61-13.9 363.86-13.3 365.11-12.7 366.01-12.25L366.01-12.25 367.11-11.7Q368.61-10.95 368.94-10.63 369.26-10.3 369.81-9.88 370.36-9.45 370.54-9.08 370.71-8.7 371.01-8.2L371.01-8.2Q371.51-7.3 371.51-5.9L371.51-5.9Q371.51-2.6 369.21-0.9 366.91 0.8 363.34 0.8 359.76 0.8 357.06-0.55L357.06-0.55Q356.96-1.25 356.96-3.28 356.96-5.3 357.06-6L357.06-6 358.51-6.3Q358.91-4 360.26-2.55 361.61-1.1 363.61-1.1Z" opacity="1" transform="matrix(1,0,0,1,0,0)" fill="#ca8575" class="wordmark-text-0" data-fill-palette-color="primary" id="text-0"></path></svg></g></svg></g></svg></g></svg></g><g></g></svg></g><defs></defs></svg><rect width="395.52" height="50.0495434223005" fill="none" stroke="none" visibility="hidden"></rect></g></svg></g></svg>